<svg xmlns="http://www.w3.org/2000/svg" width="163.055" height="21.81" viewBox="0 0 163.055 21.81">
  <g id="Group_53680" data-name="Group 53680" transform="translate(-30.299 -313.45)">
    <path id="Path_70731" data-name="Path 70731" d="M31.55,333.623V333h-.626v-.626h.626V333H32.8v.626h2.5V333h.626v.626h1.877v-3.129h-.626v-.626h-.626v-1.251h.626v1.251h.626v-1.877H35.93v.626H35.3v.626h-.626v.626H35.93v1.877H32.8v.626h-.626v-.626H31.55v-.626h-.626v.626H30.3v1.877H31.55Z" transform="translate(0 -10.209)" fill="#45a3e8"/>
    <path id="Path_70732" data-name="Path 70732" d="M62.965,315.392H54.2v.626h-.626v-.626h-.626v.626h-.626v.626H51.7v-1.251h-.626v.626H50.45v-.626H49.2v.626h.626v.626h.626v.626h2.5v-.626h.626v.626h1.877v-.626H54.83v-.626h.626v.626h.626v.626h6.257V322.9H58.585v-1.877h1.877v-1.877H56.707v5.631h7.509v-9.386H62.965Z" transform="translate(-13.268 -1.363)" fill="#45a3e8"/>
    <rect id="Rectangle_4053" data-name="Rectangle 4053" width="0.626" height="0.626" transform="translate(31.55 334.052)" fill="#45a3e8"/>
    <path id="Path_70733" data-name="Path 70733" d="M32.176,358.823v-3.129H31.55v-.626h-.626v-.626h1.251v.626H32.8v-.626h.626v.626h2.5v1.877H34.053v1.877h.626V358.2H35.3v.626h1.877V358.2h.626v-2.5h-.626v-.626h.626v-1.251H36.556v-.626H34.679v.626H33.427v-.626H31.55v.626h-.626v-.626H30.3v3.129h.626v.626H30.3v1.877H31.55v.626h.626Z" transform="translate(0 -27.9)" fill="#45a3e8"/>
    <path id="Path_70734" data-name="Path 70734" d="M49.7,353.192H43.439v5.632h3.754v-1.877H45.316v-1.877h3.754V360.7H37.808v.626h.626v.626h-.626v-.626H36.556V360.7H33.428v.626H32.8V360.7H31.55v-1.251H30.3v3.129h.626v-.626h.626v-.626h.626v.585H32.8v.041h.626v.626h1.251v-.626H35.3v.626H50.948v-9.386H49.7Zm-10.012,8.76h-.626v-.626h.626Z" transform="translate(0 -27.9)" fill="#45a3e8"/>
    <path id="Path_70735" data-name="Path 70735" d="M63.05,341.132h.626v-13.14H61.8v13.14H63.05Z" transform="translate(-22.114 -10.209)" fill="#45a3e8"/>
    <path id="Path_70736" data-name="Path 70736" d="M153.165,318.524q.014-.576.044-1.226t.059-1.255a6.533,6.533,0,0,1,.089-.9c.039-.137-.03-.206-.207-.206H149.9c-.177,0-.246.069-.206.206a7.959,7.959,0,0,1,.1.9q.045.606.059,1.255t.029,1.226q.014.576.015.841v11.811q0,.3-.015.9t-.044,1.255q-.03.65-.074,1.225t-.074.812c-.04.158.029.236.206.236h3.248a.253.253,0,0,0,.163-.059.16.16,0,0,0,.044-.177,4.733,4.733,0,0,1-.089-.812q-.029-.576-.059-1.225t-.044-1.255q-.015-.6-.015-.9V319.365Q153.15,319.1,153.165,318.524Z" transform="translate(-83.813 -1.043)" fill="#45a3e8"/>
    <path id="Path_70737" data-name="Path 70737" d="M201.946,314.936q-.531,0-.886.015c-.236.01-.457.015-.664.015s-.438.005-.694.015-.571.015-.945.015q-.531,0-1.2.015t-1.388.015h-4.68q-.857,0-1.89-.03-.5,0-.93-.015l-.856-.03q-.429-.014-.886-.015h-1.019a.3.3,0,0,0-.354.3l-.34.959q-.163.458-.339.871-.148.354-.059.458c.059.069.187.094.384.074q.62-.029,1.284-.044t1.639-.044H190.4q.472.03.782.029a1.323,1.323,0,0,1,.457.059q.177,0,.177.236c0,.158,0,.36.015.605s.015.5.015.768v11.825q0,.3-.015.886t-.044,1.225q-.03.635-.074,1.181t-.074.782a.677.677,0,0,0,0,.413q.059.088.384.089h2.864q.324,0,.384-.089a.692.692,0,0,0,0-.413q-.03-.236-.059-.8t-.059-1.2q-.029-.635-.044-1.211c-.01-.384-.015-.674-.015-.871v-13.2a.341.341,0,0,1,.354-.325q.325-.029,1.019-.015t1.491.015h1.033q.413,0,.738.015l.62.029q.295.015.679.044a.737.737,0,0,0,.354-.015.518.518,0,0,0,.177-.281q.147-.413.34-.989t.369-.989c.078-.177.093-.285.044-.325A.705.705,0,0,0,201.946,314.936Z" transform="translate(-108.456 -1.043)" fill="#45a3e8"/>
    <path id="Path_70738" data-name="Path 70738" d="M284.223,318.686q.015-.56.044-1.2t.074-1.211q.044-.576.074-.841.059-.354-.015-.428a.659.659,0,0,0-.4-.074h-2.864a.586.586,0,0,0-.369.074c-.049.049-.055.192-.015.428q.029.266.074.841t.074,1.211q.029.635.044,1.2t.015.827V323.5a.183.183,0,0,1-.206.207q-.532.03-1.181.044t-1.344.015h-5.389q-1.417,0-2.6-.029a1.107,1.107,0,0,1-.147-.059c-.039-.019-.059-.078-.059-.177v-3.986q0-.265.015-.827t.044-1.2q.029-.635.059-1.226a5.654,5.654,0,0,1,.088-.856q.059-.325-.014-.4a.659.659,0,0,0-.4-.074h-2.864c-.217,0-.345.025-.384.074s-.04.182,0,.4c.019.177.044.463.074.856s.054.8.074,1.226.034.822.044,1.2.015.65.015.827v11.515q0,.3-.015.871t-.044,1.211q-.029.635-.074,1.2c-.029.374-.054.64-.074.8-.04.236-.04.379,0,.428s.167.074.384.074h2.864a.657.657,0,0,0,.4-.074c.049-.049.054-.192.014-.428a4.7,4.7,0,0,1-.088-.8q-.03-.56-.059-1.2t-.044-1.211q-.015-.576-.015-.871V326.54a.183.183,0,0,1,.207-.206q1.122-.029,2.569-.044t2.687-.015h2.746q.709,0,1.358.015t1.152.015c.137.02.206.089.206.207v4.517q0,.3-.015.871t-.044,1.211q-.029.635-.074,1.2c-.03.374-.055.64-.074.8-.04.236-.04.379,0,.428s.167.074.384.074H284a.657.657,0,0,0,.4-.074c.049-.049.054-.192.015-.428a4.645,4.645,0,0,1-.089-.8q-.03-.56-.059-1.2t-.044-1.211q-.015-.576-.015-.871V319.512Q284.209,319.247,284.223,318.686Z" transform="translate(-165.858 -1.043)" fill="#45a3e8"/>
    <path id="Path_70739" data-name="Path 70739" d="M368.132,333q-.207-.487-.458-1.019t-.487-1.092q-.236-.56-.443-1.063L361.814,317.6q-.414-1.033-.709-1.816t-.591-1.639a.749.749,0,0,0-.221-.354.5.5,0,0,0-.369.029c-.118.04-.246.079-.384.118s-.256.079-.354.118a1.379,1.379,0,0,0-.355.236,1.609,1.609,0,0,0-.266.443L351.686,330q-.65,1.477-1.2,2.539t-.959,1.772q-.207.325-.133.4a.81.81,0,0,0,.458.074h2.569a.8.8,0,0,0,.384-.059.549.549,0,0,0,.147-.325,5.65,5.65,0,0,1,.236-.768q.147-.383.354-.886t.487-1.152q.28-.649.694-1.535l.62-1.417a.324.324,0,0,1,.325-.206q.8-.059,1.728-.059h3.469q.886,0,1.653.059a.362.362,0,0,1,.325.206l.591,1.565q.384.946.65,1.654t.458,1.255q.192.547.325,1.018t.281.945a1.066,1.066,0,0,0,.192.384q.073.059.4-.059l2.539-.945q.325-.118.355-.236a.626.626,0,0,0-.118-.384Q368.339,333.485,368.132,333Zm-6.466-7.131q-.5.03-1.24.044t-1.24.015h-1.211q-.738,0-1.24-.03c-.118-.019-.148-.089-.089-.207l2.6-6.053q.089-.266.207,0l2.3,6.023C361.774,325.8,361.744,325.867,361.666,325.867Z" transform="translate(-224.005 -0.222)" fill="#45a3e8"/>
    <path id="Path_70740" data-name="Path 70740" d="M450.327,329.955q-.118-.059-.266.089a8.823,8.823,0,0,1-2.894,1.831,10.441,10.441,0,0,1-3.956.62,7.408,7.408,0,0,1-3.071-.65,8.186,8.186,0,0,1-2.539-1.772,8.4,8.4,0,0,1-1.727-2.628,8.548,8.548,0,0,1,0-6.466,8.545,8.545,0,0,1,1.712-2.628,7.826,7.826,0,0,1,2.525-1.757,7.63,7.63,0,0,1,3.1-.635,9.232,9.232,0,0,1,2.938.458,7.306,7.306,0,0,1,2.318,1.225q.325.3.443.251t.266-.458l.8-2.126a.582.582,0,0,0,.03-.4.631.631,0,0,0-.354-.192q-.591-.147-1.181-.31t-1.27-.369a13.072,13.072,0,0,0-1.964-.428,14.583,14.583,0,0,0-2.111-.162,12.375,12.375,0,0,0-4.444.782,10.713,10.713,0,0,0-3.573,2.214,10.365,10.365,0,0,0-2.392,3.41,10.722,10.722,0,0,0-.871,4.37,10.9,10.9,0,0,0,.871,4.414,10.159,10.159,0,0,0,2.392,3.41,10.833,10.833,0,0,0,3.573,2.2,12.382,12.382,0,0,0,4.444.782,13.76,13.76,0,0,0,2.894-.281,11.754,11.754,0,0,0,2.451-.812,1.79,1.79,0,0,0,.561-.384,2.13,2.13,0,0,0,.3-.532l1.063-2.835C450.425,330.073,450.405,330,450.327,329.955Z" transform="translate(-281.898)" fill="#45a3e8"/>
    <path id="Path_70741" data-name="Path 70741" d="M532.024,333.839q-.177-.354-.384-.841t-.458-1.019q-.251-.531-.487-1.092t-.443-1.063L525.321,317.6q-.414-1.033-.709-1.816t-.591-1.639a.749.749,0,0,0-.221-.354.5.5,0,0,0-.369.029q-.177.059-.384.118c-.138.04-.256.079-.354.118a1.375,1.375,0,0,0-.355.236,1.607,1.607,0,0,0-.265.443L515.194,330q-.65,1.477-1.2,2.539t-.96,1.772q-.206.325-.133.4a.81.81,0,0,0,.458.074h2.569a.8.8,0,0,0,.384-.059.546.546,0,0,0,.148-.325,5.663,5.663,0,0,1,.236-.768q.147-.383.354-.886t.487-1.152q.28-.649.694-1.535l.62-1.417a.324.324,0,0,1,.325-.206q.8-.059,1.728-.059h3.469q.886,0,1.653.059a.362.362,0,0,1,.325.206l.591,1.565q.383.946.65,1.654t.458,1.255q.192.547.325,1.018t.28.945a1.069,1.069,0,0,0,.192.384q.073.059.4-.059l2.539-.945q.325-.118.355-.236A.625.625,0,0,0,532.024,333.839Zm-6.85-7.972q-.5.03-1.24.044t-1.24.015h-1.211q-.738,0-1.24-.03c-.118-.019-.148-.089-.089-.207l2.6-6.053q.089-.266.207,0l2.3,6.023C525.282,325.8,525.252,325.867,525.174,325.867Z" transform="translate(-338.794 -0.222)" fill="#45a3e8"/>
  </g>
</svg>
